<?xml version="1.0" ?><svg height="24px" version="1.1" viewBox="0 0 24 24" width="24px" xmlns="http://www.w3.org/2000/svg" xmlns:sketch="http://www.bohemiancoding.com/sketch/ns" xmlns:xlink="http://www.w3.org/1999/xlink"><title/><desc/><defs/><g fill="none" fill-rule="evenodd" id="miu" stroke="none" stroke-width="1"><g id="Artboard-1" transform="translate(-575.000000, -155.000000)"><g id="slice" transform="translate(215.000000, 119.000000)"/><path d="M587.5,178 C593.851275,178 599,172.851275 599,166.5 C599,160.148725 593.851275,155 587.5,155 C581.148725,155 576,160.148725 576,166.5 C576,172.851275 581.148725,178 587.5,178 Z M587.5,177 C593.29899,177 598,172.29899 598,166.5 C598,160.70101 593.29899,156 587.5,156 C581.70101,156 577,160.70101 577,166.5 C577,172.29899 581.70101,177 587.5,177 Z M583.257359,171.449747 L582.550253,170.742641 L586.792893,166.5 L582.550253,162.257359 L583.257359,161.550253 L587.5,165.792893 L591.742641,161.550253 L592.449747,162.257359 L588.207107,166.5 L592.449747,170.742641 L591.742641,171.449747 L587.5,167.207107 L583.257359,171.449747 Z" fill="#000000" id="circle-close-delete-remove-outline-stroke"/></g></g></svg>